<svg id="svg" version="1.1" xmlns="http://www.w3.org/2000/svg" xmlns:xlink="http://www.w3.org/1999/xlink" width="200" height="200" viewBox="0, 0, 400,418.1818181818182">
	<g id="svgg">
		<path id="blue" d="M180.000 18.850 C 147.122 21.050,124.031 30.652,115.666 45.603 C 112.437 51.373,112.343 52.387,112.659 78.100 L 112.928 100.000 156.856 100.000 L 200.785 100.000 201.008 100.900 C 201.130 101.395,201.179 104.140,201.115 107.000 L 201.000 112.200 134.600 112.415 C 72.545 112.616,68.004 112.677,65.200 113.348 C 33.373 120.965,17.670 151.356,18.513 203.699 C 19.270 250.698,33.527 279.708,59.885 287.885 L 63.400 288.976 82.100 289.110 L 100.800 289.244 100.807 265.722 C 100.813 247.325,100.941 241.309,101.396 238.111 C 104.856 213.775,119.180 198.309,141.302 195.024 C 144.925 194.486,152.050 194.400,193.131 194.400 C 244.054 194.400,245.552 194.350,253.299 192.374 C 273.824 187.139,285.314 174.707,288.209 154.600 C 289.232 147.497,289.062 61.553,288.017 57.467 C 280.731 28.978,240.985 14.768,180.000 18.850 M157.333 47.584 C 170.310 53.861,168.993 72.973,155.292 77.204 C 136.137 83.121,126.262 55.109,144.757 47.320 C 147.862 46.012,154.365 46.149,157.333 47.584 " stroke="none" fill="#3473a5" fill-rule="evenodd"/>
		<path id="yellow" d="M300.692 110.242 C 300.531 110.402,300.397 121.438,300.393 134.767 C 300.385 159.841,300.247 162.496,298.624 168.723 C 293.766 187.358,281.850 199.406,264.200 203.528 C 257.713 205.044,252.085 205.200,203.969 205.200 L 157.653 205.200 152.313 206.186 C 129.472 210.405,115.874 223.829,113.200 244.800 C 112.904 247.120,112.803 263.072,112.883 295.000 L 113.000 341.800 114.150 344.800 C 122.754 367.246,147.791 378.953,191.306 380.876 C 244.115 383.209,280.665 371.177,287.760 349.122 L 288.828 345.800 288.714 322.600 L 288.600 299.400 244.600 299.400 L 200.600 299.400 200.490 293.097 L 200.380 286.794 266.174 286.804 C 324.539 286.812,332.313 286.742,335.021 286.183 C 358.487 281.336,373.752 263.324,380.263 232.800 L 381.756 225.800 381.898 201.011 C 382.051 174.264,382.056 174.356,379.798 163.149 C 374.204 135.393,359.999 116.544,340.600 111.135 C 337.330 110.224,301.512 109.421,300.692 110.242 M257.400 322.992 C 267.442 327.675,269.751 340.687,261.928 348.510 C 254.557 355.881,241.744 354.035,236.890 344.901 C 229.680 331.334,243.541 316.529,257.400 322.992 " stroke="none" fill="#fcd343" fill-rule="evenodd"/>
		<path id="bg" d="M0.000 200.000 L 0.000 400.000 200.000 400.000 L 400.000 400.000 400.000 200.000 L 400.000 0.000 200.000 0.000 L 0.000 0.000 0.000 200.000 M221.137 19.194 C 259.795 22.812,282.473 35.790,288.017 57.467 C 289.062 61.553,289.232 147.497,288.209 154.600 C 285.314 174.707,273.824 187.139,253.299 192.374 C 245.552 194.350,244.054 194.400,193.131 194.400 C 152.050 194.400,144.925 194.486,141.302 195.024 C 119.180 198.309,104.856 213.775,101.396 238.111 C 100.941 241.309,100.813 247.325,100.807 265.722 L 100.800 289.244 82.100 289.110 L 63.400 288.976 59.885 287.885 C 33.527 279.708,19.270 250.698,18.513 203.699 C 17.670 151.356,33.373 120.965,65.200 113.348 C 68.004 112.677,72.545 112.616,134.600 112.415 L 201.000 112.200 201.115 107.000 C 201.179 104.140,201.130 101.395,201.008 100.900 L 200.785 100.000 156.856 100.000 L 112.928 100.000 112.659 78.100 C 112.312 49.819,112.465 48.921,119.048 40.722 C 132.681 23.745,174.817 14.859,221.137 19.194 M144.757 47.320 C 126.262 55.109,136.137 83.121,155.292 77.204 C 168.993 72.973,170.310 53.861,157.333 47.584 C 154.365 46.149,147.862 46.012,144.757 47.320 M340.600 111.135 C 359.999 116.544,374.204 135.393,379.798 163.149 C 382.056 174.356,382.051 174.264,381.898 201.011 L 381.756 225.800 380.263 232.800 C 373.752 263.324,358.487 281.336,335.021 286.183 C 332.313 286.742,324.539 286.812,266.174 286.804 L 200.380 286.794 200.490 293.097 L 200.600 299.400 244.600 299.400 L 288.600 299.400 288.714 322.600 L 288.828 345.800 287.760 349.122 C 280.665 371.177,244.115 383.209,191.306 380.876 C 147.791 378.953,122.754 367.246,114.150 344.800 L 113.000 341.800 112.883 295.000 C 112.803 263.072,112.904 247.120,113.200 244.800 C 115.874 223.829,129.472 210.405,152.313 206.186 L 157.653 205.200 203.969 205.200 C 252.085 205.200,257.713 205.044,264.200 203.528 C 281.850 199.406,293.766 187.358,298.624 168.723 C 300.247 162.496,300.385 159.841,300.393 134.767 C 300.397 121.438,300.531 110.402,300.692 110.242 C 301.512 109.421,337.330 110.224,340.600 111.135 M247.976 321.589 C 239.586 323.073,233.475 331.929,235.165 340.156 C 238.718 357.456,263.227 357.210,266.427 339.842 C 268.334 329.499,258.463 319.735,247.976 321.589 " stroke="none" fill="white" fill-rule="evenodd"/>
	</g>
</svg>