<svg xmlns="http://www.w3.org/2000/svg" width="200" height="200" viewBox="0 0 45 45">
    <path fill="#139b16"
          d="M32.787.2c.357 2.37.783 4.858-.087 7.318-.773 2.184-2.046 3.944-4.362 4.723-.031.01-.063.034-.093.033-.714-.025-.881.387-.929 1.02-.155 2.05-.36 4.095-.498 6.164.952-.954 1.973-1.771 3.159-2.376 1.183-.604 2.45-.905 3.763-1.067-1.426-.289-2.823-.207-4.213.171-.265.073-.566.017-.85.02.015-.317-.054-.669.06-.945.714-1.722 2.873-2.79 4.7-2.271.74.21 1.467.562 2.117.98 1.01.647 1.949 1.406 2.92 2.12l-2.231 3.261c-1.707 2.494-4.718 2.795-6.886.683-.779.694-1.415 1.49-1.882 2.434-.193.391-.456.819-.807 1.05-1.052.695-2.387-.055-2.387-1.328 0-1.221.079-2.442.125-3.663a49.085 49.085 0 0 1 1.297-9.578c.433-1.81 1.105-3.505 2.184-5.03.043-.06.076-.13.175-.3-1.05.434-1.814 1.054-2.476 1.811-1.022 1.17-1.46 2.572-1.581 4.09-.033.416-.131.773-.584.884-.464.115-.697-.193-.912-.538-2.038-3.26-.518-7.297 3.25-8.373C27.24 1.07 28.811.957 30.34.687c.81-.143 1.614-.32 2.446-.487"/>
    <path fill="#139b16"
          d="M12.91 16.083c.924-.692 1.83-1.406 2.774-2.068 1.373-.965 2.87-1.425 4.545-.914 1.298.395 2.125 1.292 2.573 2.541.077.214.043.567-.093.725-.107.125-.476.126-.681.051a9.771 9.771 0 0 0-4.84-.477c-.112.017-.223.044-.427.085.67.094 1.251.139 1.815.264.568.127 1.13.306 1.673.514.436.166.854.388 1.257.624 1.018.594 1.205 1.548.509 2.499-1.23 1.679-4.075 2.04-5.708.654-.641-.543-1.183-1.225-1.687-1.905-.616-.831-1.144-1.726-1.71-2.593"/>

    <path fill="#42210b"
          d="M20.92 32.263c.458.413.907.836 1.382 1.23.125.103.329.157.497.158 1.924.011 3.85.016 5.774-.005.227-.002.482-.123.672-.262 3.453-2.506 6.886-5.04 10.35-7.53 1.367-.982 2.865-1.373 4.476-.552 1.093.557 1.233 1.657.313 2.488-1.254 1.133-2.522 2.25-3.786 3.372-2.629 2.333-5.275 4.646-7.882 7.002-1.438 1.3-3.08 1.94-5.017 1.933-4.77-.018-9.54-.002-14.31-.014-.392 0-.636.104-.856.446-.878 1.363-1.79 2.704-2.691 4.053-.063.094-.135.181-.176.237L0 35.153c.097-.073.27-.177.411-.315 2.833-2.777 5.64-5.58 8.5-8.328 1.811-1.74 4.038-2.486 6.542-2.46 1.343.015 2.626.275 3.831.864 1.014.495 2.079.72 3.2.726 1.539.008 3.079.01 4.618.03.886.01 1.676.324 2.352.881 1.77 1.46 1.301 4.215-.906 5.105-.648.26-1.394.358-2.1.382-1.622.054-3.246.017-4.87.017h-.537l-.122.208"/>
</svg>
